<mxfile host="app.diagrams.net" modified="2020-08-03T17:42:21.234Z" agent="5.0 (Macintosh)" etag="XMe6ZoZ5oBGNxC13rJeP" version="13.5.6" type="github">
  <diagram id="hWgGmNXxfSzPu4l1RsgI" name="Page-1">
    <mxGraphModel dx="1426" dy="831" grid="1" gridSize="10" guides="1" tooltips="1" connect="1" arrows="1" fold="1" page="1" pageScale="1" pageWidth="850" pageHeight="1100" math="0" shadow="0">
      <root>
        <mxCell id="0" />
        <mxCell id="1" parent="0" />
        <mxCell id="Yeyksw3LHqvZiCf3kS9S-1" value="Devices API" style="rounded=1;whiteSpace=wrap;html=1;" vertex="1" parent="1">
          <mxGeometry x="305" y="120" width="120" height="60" as="geometry" />
        </mxCell>
        <mxCell id="Yeyksw3LHqvZiCf3kS9S-2" value="Comm API" style="rounded=1;whiteSpace=wrap;html=1;" vertex="1" parent="1">
          <mxGeometry x="470" y="120" width="120" height="60" as="geometry" />
        </mxCell>
        <mxCell id="Yeyksw3LHqvZiCf3kS9S-3" value="Notiications Page API" style="rounded=1;whiteSpace=wrap;html=1;" vertex="1" parent="1">
          <mxGeometry x="630" y="120" width="120" height="60" as="geometry" />
        </mxCell>
        <mxCell id="Yeyksw3LHqvZiCf3kS9S-18" style="edgeStyle=orthogonalEdgeStyle;rounded=0;orthogonalLoop=1;jettySize=auto;html=1;exitX=0.75;exitY=1;exitDx=0;exitDy=0;entryX=0;entryY=0.25;entryDx=0;entryDy=0;" edge="1" parent="1" source="Yeyksw3LHqvZiCf3kS9S-5" target="Yeyksw3LHqvZiCf3kS9S-16">
          <mxGeometry relative="1" as="geometry" />
        </mxCell>
        <mxCell id="Yeyksw3LHqvZiCf3kS9S-5" value="DataProtection API" style="rounded=1;whiteSpace=wrap;html=1;" vertex="1" parent="1">
          <mxGeometry x="140" y="120" width="120" height="60" as="geometry" />
        </mxCell>
        <mxCell id="Yeyksw3LHqvZiCf3kS9S-10" style="edgeStyle=orthogonalEdgeStyle;rounded=0;orthogonalLoop=1;jettySize=auto;html=1;exitX=0.5;exitY=0;exitDx=0;exitDy=0;entryX=0.5;entryY=1;entryDx=0;entryDy=0;" edge="1" parent="1" source="Yeyksw3LHqvZiCf3kS9S-6" target="Yeyksw3LHqvZiCf3kS9S-1">
          <mxGeometry relative="1" as="geometry" />
        </mxCell>
        <mxCell id="Yeyksw3LHqvZiCf3kS9S-11" style="edgeStyle=orthogonalEdgeStyle;rounded=0;orthogonalLoop=1;jettySize=auto;html=1;exitX=0.25;exitY=0;exitDx=0;exitDy=0;entryX=0.5;entryY=1;entryDx=0;entryDy=0;" edge="1" parent="1" source="Yeyksw3LHqvZiCf3kS9S-6" target="Yeyksw3LHqvZiCf3kS9S-2">
          <mxGeometry relative="1" as="geometry" />
        </mxCell>
        <mxCell id="Yeyksw3LHqvZiCf3kS9S-12" style="edgeStyle=orthogonalEdgeStyle;rounded=0;orthogonalLoop=1;jettySize=auto;html=1;exitX=0.75;exitY=0;exitDx=0;exitDy=0;entryX=0.5;entryY=1;entryDx=0;entryDy=0;" edge="1" parent="1" source="Yeyksw3LHqvZiCf3kS9S-6" target="Yeyksw3LHqvZiCf3kS9S-3">
          <mxGeometry relative="1" as="geometry" />
        </mxCell>
        <mxCell id="Yeyksw3LHqvZiCf3kS9S-17" style="edgeStyle=orthogonalEdgeStyle;rounded=0;orthogonalLoop=1;jettySize=auto;html=1;entryX=1;entryY=0.5;entryDx=0;entryDy=0;" edge="1" parent="1" source="Yeyksw3LHqvZiCf3kS9S-6" target="Yeyksw3LHqvZiCf3kS9S-16">
          <mxGeometry relative="1" as="geometry" />
        </mxCell>
        <mxCell id="Yeyksw3LHqvZiCf3kS9S-6" value="events-broker" style="rounded=1;whiteSpace=wrap;html=1;" vertex="1" parent="1">
          <mxGeometry x="600" y="270" width="120" height="50" as="geometry" />
        </mxCell>
        <mxCell id="Yeyksw3LHqvZiCf3kS9S-8" style="edgeStyle=orthogonalEdgeStyle;rounded=0;orthogonalLoop=1;jettySize=auto;html=1;exitX=0.5;exitY=1;exitDx=0;exitDy=0;" edge="1" parent="1" source="Yeyksw3LHqvZiCf3kS9S-1" target="Yeyksw3LHqvZiCf3kS9S-1">
          <mxGeometry relative="1" as="geometry" />
        </mxCell>
        <mxCell id="Yeyksw3LHqvZiCf3kS9S-14" value="&lt;div&gt;DataProtection DB&lt;/div&gt;" style="shape=cylinder2;whiteSpace=wrap;html=1;boundedLbl=1;backgroundOutline=1;size=15;" vertex="1" parent="1">
          <mxGeometry x="80" y="115" width="60" height="70" as="geometry" />
        </mxCell>
        <mxCell id="Yeyksw3LHqvZiCf3kS9S-19" style="edgeStyle=orthogonalEdgeStyle;rounded=0;orthogonalLoop=1;jettySize=auto;html=1;exitX=0;exitY=0.5;exitDx=0;exitDy=0;entryX=0.5;entryY=1;entryDx=0;entryDy=0;" edge="1" parent="1" source="Yeyksw3LHqvZiCf3kS9S-16" target="Yeyksw3LHqvZiCf3kS9S-5">
          <mxGeometry relative="1" as="geometry" />
        </mxCell>
        <mxCell id="Yeyksw3LHqvZiCf3kS9S-21" style="edgeStyle=orthogonalEdgeStyle;rounded=0;orthogonalLoop=1;jettySize=auto;html=1;exitX=0.5;exitY=1;exitDx=0;exitDy=0;" edge="1" parent="1" source="Yeyksw3LHqvZiCf3kS9S-16" target="Yeyksw3LHqvZiCf3kS9S-20">
          <mxGeometry relative="1" as="geometry" />
        </mxCell>
        <mxCell id="Yeyksw3LHqvZiCf3kS9S-16" value="Kafka" style="rounded=1;whiteSpace=wrap;html=1;" vertex="1" parent="1">
          <mxGeometry x="330" y="270" width="170" height="50" as="geometry" />
        </mxCell>
        <mxCell id="Yeyksw3LHqvZiCf3kS9S-23" style="edgeStyle=orthogonalEdgeStyle;rounded=0;orthogonalLoop=1;jettySize=auto;html=1;exitX=0.5;exitY=1;exitDx=0;exitDy=0;entryX=0.5;entryY=0;entryDx=0;entryDy=0;" edge="1" parent="1" source="Yeyksw3LHqvZiCf3kS9S-20" target="Yeyksw3LHqvZiCf3kS9S-22">
          <mxGeometry relative="1" as="geometry" />
        </mxCell>
        <mxCell id="Yeyksw3LHqvZiCf3kS9S-20" value="alerts-worker" style="rounded=1;whiteSpace=wrap;html=1;" vertex="1" parent="1">
          <mxGeometry x="355" y="340" width="120" height="20" as="geometry" />
        </mxCell>
        <mxCell id="Yeyksw3LHqvZiCf3kS9S-22" value="Prometheus" style="rounded=1;whiteSpace=wrap;html=1;" vertex="1" parent="1">
          <mxGeometry x="355" y="400" width="120" height="60" as="geometry" />
        </mxCell>
      </root>
    </mxGraphModel>
  </diagram>
</mxfile>
